Exact Audio Copy V0.99 prebeta 1 from 25. May 2007

EAC 抓取日志文件从2. 十一月 2010, 22:52

毛阿敏 / 20世纪中华歌坛名人百集珍藏版

使用驱动器  ：BENQ    DVD-ROM 16X   Adapter: 0  ID: 1

读取模式     : 保护
使用精确流   : 是
废除音频缓冲 : 是
使用 C2 指针 : 否

读取偏移校正                   : 738
读取 Lead-In 和 Lead-Out       : 否
用静音填充抓取中丢失偏移的采样 : 是
去除首尾静音块                 : 否
已用接口                       : 已安装外部 ASPI 接口

所用输出格式 : 内部 WAV 函数
样本格式     : 44.100 Hz;16 Bit;立体声


被抓轨 CD 的 TOC

     音轨 |   开始   |   长度   | 起始扇区 | 结尾扇区 
    --------------------------------------------------
       1  |  0:00.00 |  4:23.22 |       0  |   19746  
       2  |  4:23.22 |  3:32.23 |   19747  |   35669  
       3  |  7:55.45 |  4:41.72 |   35670  |   56816  
       4  | 12:37.42 |  3:33.43 |   56817  |   72834  
       5  | 16:11.10 |  4:56.20 |   72835  |   95054  
       6  | 21:07.30 |  3:30.17 |   95055  |  110821  
       7  | 24:37.47 |  2:45.10 |  110822  |  123206  
       8  | 27:22.57 |  3:42.03 |  123207  |  139859  
       9  | 31:04.60 |  2:42.32 |  139860  |  152041  
      10  | 33:47.17 |  3:08.28 |  152042  |  166169  
      11  | 36:55.45 |  3:41.72 |  166170  |  182816  
      12  | 40:37.42 |  3:36.05 |  182817  |  199021  
      13  | 44:13.47 |  4:01.53 |  199022  |  217149  
      14  | 48:15.25 |  4:00.12 |  217150  |  235161  
      15  | 52:15.37 |  4:28.50 |  235162  |  255311  


范围状态及错误

已选择范围

     文件名 E:\文件夹\20世纪中华歌坛名人百集珍藏版-毛阿敏[lwg188原创]\毛阿敏 - 20世纪中华歌坛名人百集珍藏版.wav

     峰值电平 100.0 %
     范围质量 100.0 %
     复制 CRC BF750AEE
     复制成功

没有错误发生

状态报告结尾
